<svg width="559" height="156" viewBox="0 0 559 156" fill="none" xmlns="http://www.w3.org/2000/svg">
<path d="M98.75 156H62.375V153.375C63.625 153.375 64.6667 153.375 65.5 153.375C66.3333 153.292 67 153.208 67.5 153.125C68.0833 152.958 68.5833 152.833 69 152.75C69.4167 152.583 69.8333 152.375 70.25 152.125C70.9167 151.708 71.4167 151.208 71.75 150.625C72.1667 149.958 72.375 149.292 72.375 148.625C72.375 146.292 71.4583 143.042 69.625 138.875L63.625 125.25H26.375L19.75 141.875C19.4167 142.792 19.125 143.75 18.875 144.75C18.7083 145.667 18.625 146.583 18.625 147.5C18.625 149.417 19.375 150.875 20.875 151.875C22.375 152.875 24.875 153.375 28.375 153.375V156H0V153.375C1.75 153.292 3.25 153 4.5 152.5C5.75 152 7 150.958 8.25 149.375C9.5 147.708 10.8333 145.375 12.25 142.375C13.75 139.292 15.625 135.125 17.875 129.875L47.5 59.875H50.25L85.875 140.875C87.0417 143.542 88.0417 145.667 88.875 147.25C89.7917 148.833 90.7083 150.083 91.625 151C92.5417 151.833 93.5417 152.417 94.625 152.75C95.7917 153.083 97.1667 153.292 98.75 153.375V156ZM61.75 119.5L45.25 80.125L28.75 119.5H61.75Z" fill="#618424"/>
<ellipse cx="76.3586" cy="67.8366" rx="9.70536" ry="8.36517" transform="rotate(2.845 76.3586 67.8366)" fill="#D5D1C6"/>
<path d="M114.795 139H108.886L125.977 92.4545H131.795L148.886 139H142.977L129.068 99.8182H128.705L114.795 139ZM116.977 120.818H140.795V125.818H116.977V120.818ZM168.591 139.727C165.682 139.727 163.114 138.992 160.886 137.523C158.659 136.038 156.917 133.947 155.659 131.25C154.402 128.538 153.773 125.333 153.773 121.636C153.773 117.97 154.402 114.788 155.659 112.091C156.917 109.394 158.667 107.311 160.909 105.841C163.152 104.371 165.742 103.636 168.682 103.636C170.955 103.636 172.75 104.015 174.068 104.773C175.402 105.515 176.417 106.364 177.114 107.318C177.826 108.258 178.379 109.03 178.773 109.636H179.227V92.4545H184.591V139H179.409V133.636H178.773C178.379 134.273 177.818 135.076 177.091 136.045C176.364 137 175.326 137.856 173.977 138.614C172.629 139.356 170.833 139.727 168.591 139.727ZM169.318 134.909C171.47 134.909 173.288 134.348 174.773 133.227C176.258 132.091 177.386 130.523 178.159 128.523C178.932 126.508 179.318 124.182 179.318 121.545C179.318 118.939 178.939 116.659 178.182 114.705C177.424 112.735 176.303 111.205 174.818 110.114C173.333 109.008 171.5 108.455 169.318 108.455C167.045 108.455 165.152 109.038 163.636 110.205C162.136 111.356 161.008 112.924 160.25 114.909C159.508 116.879 159.136 119.091 159.136 121.545C159.136 124.03 159.515 126.288 160.273 128.318C161.045 130.333 162.182 131.939 163.682 133.136C165.197 134.318 167.076 134.909 169.318 134.909ZM205.432 139.818C203.22 139.818 201.212 139.402 199.409 138.568C197.606 137.72 196.174 136.5 195.114 134.909C194.053 133.303 193.523 131.364 193.523 129.091C193.523 127.091 193.917 125.47 194.705 124.227C195.492 122.97 196.545 121.985 197.864 121.273C199.182 120.561 200.636 120.03 202.227 119.682C203.833 119.318 205.447 119.03 207.068 118.818C209.189 118.545 210.909 118.341 212.227 118.205C213.561 118.053 214.53 117.803 215.136 117.455C215.758 117.106 216.068 116.5 216.068 115.636V115.455C216.068 113.212 215.455 111.47 214.227 110.227C213.015 108.985 211.174 108.364 208.705 108.364C206.144 108.364 204.136 108.924 202.682 110.045C201.227 111.167 200.205 112.364 199.614 113.636L194.523 111.818C195.432 109.697 196.644 108.045 198.159 106.864C199.689 105.667 201.356 104.833 203.159 104.364C204.977 103.879 206.765 103.636 208.523 103.636C209.644 103.636 210.932 103.773 212.386 104.045C213.856 104.303 215.273 104.841 216.636 105.659C218.015 106.477 219.159 107.712 220.068 109.364C220.977 111.015 221.432 113.227 221.432 116V139H216.068V134.273H215.795C215.432 135.03 214.826 135.841 213.977 136.705C213.129 137.568 212 138.303 210.591 138.909C209.182 139.515 207.462 139.818 205.432 139.818ZM206.25 135C208.371 135 210.159 134.583 211.614 133.75C213.083 132.917 214.189 131.841 214.932 130.523C215.689 129.205 216.068 127.818 216.068 126.364V121.455C215.841 121.727 215.341 121.977 214.568 122.205C213.811 122.417 212.932 122.606 211.932 122.773C210.947 122.924 209.985 123.061 209.045 123.182C208.121 123.288 207.371 123.379 206.795 123.455C205.402 123.636 204.098 123.932 202.886 124.341C201.689 124.735 200.72 125.333 199.977 126.136C199.25 126.924 198.886 128 198.886 129.364C198.886 131.227 199.576 132.636 200.955 133.591C202.348 134.53 204.114 135 206.25 135Z" fill="#D5D1C6"/>
<path d="M230.795 92.4545L244.614 131.636H245.159L258.977 92.4545H264.886L247.795 139H241.977L224.886 92.4545H230.795ZM282.795 139.727C279.432 139.727 276.53 138.985 274.091 137.5C271.667 136 269.795 133.909 268.477 131.227C267.174 128.53 266.523 125.394 266.523 121.818C266.523 118.242 267.174 115.091 268.477 112.364C269.795 109.621 271.629 107.485 273.977 105.955C276.341 104.409 279.098 103.636 282.25 103.636C284.068 103.636 285.864 103.939 287.636 104.545C289.409 105.152 291.023 106.136 292.477 107.5C293.932 108.848 295.091 110.636 295.955 112.864C296.818 115.091 297.25 117.833 297.25 121.091V123.364H270.341V118.727H291.795C291.795 116.758 291.402 115 290.614 113.455C289.841 111.909 288.735 110.689 287.295 109.795C285.871 108.902 284.189 108.455 282.25 108.455C280.114 108.455 278.265 108.985 276.705 110.045C275.159 111.091 273.97 112.455 273.136 114.136C272.303 115.818 271.886 117.621 271.886 119.545V122.636C271.886 125.273 272.341 127.508 273.25 129.341C274.174 131.159 275.455 132.545 277.091 133.5C278.727 134.439 280.629 134.909 282.795 134.909C284.205 134.909 285.477 134.712 286.614 134.318C287.765 133.909 288.758 133.303 289.591 132.5C290.424 131.682 291.068 130.667 291.523 129.455L296.705 130.909C296.159 132.667 295.242 134.212 293.955 135.545C292.667 136.864 291.076 137.894 289.182 138.636C287.288 139.364 285.159 139.727 282.795 139.727ZM305.409 139V104.091H310.591V109.364H310.955C311.591 107.636 312.742 106.235 314.409 105.159C316.076 104.083 317.955 103.545 320.045 103.545C320.439 103.545 320.932 103.553 321.523 103.568C322.114 103.583 322.561 103.606 322.864 103.636V109.091C322.682 109.045 322.265 108.977 321.614 108.886C320.977 108.78 320.303 108.727 319.591 108.727C317.894 108.727 316.379 109.083 315.045 109.795C313.727 110.492 312.682 111.462 311.909 112.705C311.152 113.932 310.773 115.333 310.773 116.909V139H305.409ZM353.949 111.909L349.131 113.273C348.828 112.47 348.381 111.689 347.79 110.932C347.214 110.159 346.426 109.523 345.426 109.023C344.426 108.523 343.146 108.273 341.585 108.273C339.449 108.273 337.669 108.765 336.244 109.75C334.835 110.72 334.131 111.955 334.131 113.455C334.131 114.788 334.616 115.841 335.585 116.614C336.555 117.386 338.07 118.03 340.131 118.545L345.312 119.818C348.434 120.576 350.759 121.735 352.29 123.295C353.82 124.841 354.585 126.833 354.585 129.273C354.585 131.273 354.009 133.061 352.858 134.636C351.722 136.212 350.131 137.455 348.085 138.364C346.04 139.273 343.661 139.727 340.949 139.727C337.388 139.727 334.441 138.955 332.108 137.409C329.775 135.864 328.297 133.606 327.676 130.636L332.767 129.364C333.252 131.242 334.169 132.652 335.517 133.591C336.881 134.53 338.661 135 340.858 135C343.358 135 345.343 134.47 346.812 133.409C348.297 132.333 349.04 131.045 349.04 129.545C349.04 128.333 348.616 127.318 347.767 126.5C346.919 125.667 345.616 125.045 343.858 124.636L338.04 123.273C334.843 122.515 332.494 121.341 330.994 119.75C329.509 118.144 328.767 116.136 328.767 113.727C328.767 111.758 329.32 110.015 330.426 108.5C331.547 106.985 333.07 105.795 334.994 104.932C336.934 104.068 339.131 103.636 341.585 103.636C345.04 103.636 347.752 104.394 349.722 105.909C351.706 107.424 353.116 109.424 353.949 111.909ZM377.295 139.727C373.932 139.727 371.03 138.985 368.591 137.5C366.167 136 364.295 133.909 362.977 131.227C361.674 128.53 361.023 125.394 361.023 121.818C361.023 118.242 361.674 115.091 362.977 112.364C364.295 109.621 366.129 107.485 368.477 105.955C370.841 104.409 373.598 103.636 376.75 103.636C378.568 103.636 380.364 103.939 382.136 104.545C383.909 105.152 385.523 106.136 386.977 107.5C388.432 108.848 389.591 110.636 390.455 112.864C391.318 115.091 391.75 117.833 391.75 121.091V123.364H364.841V118.727H386.295C386.295 116.758 385.902 115 385.114 113.455C384.341 111.909 383.235 110.689 381.795 109.795C380.371 108.902 378.689 108.455 376.75 108.455C374.614 108.455 372.765 108.985 371.205 110.045C369.659 111.091 368.47 112.455 367.636 114.136C366.803 115.818 366.386 117.621 366.386 119.545V122.636C366.386 125.273 366.841 127.508 367.75 129.341C368.674 131.159 369.955 132.545 371.591 133.5C373.227 134.439 375.129 134.909 377.295 134.909C378.705 134.909 379.977 134.712 381.114 134.318C382.265 133.909 383.258 133.303 384.091 132.5C384.924 131.682 385.568 130.667 386.023 129.455L391.205 130.909C390.659 132.667 389.742 134.212 388.455 135.545C387.167 136.864 385.576 137.894 383.682 138.636C381.788 139.364 379.659 139.727 377.295 139.727Z" fill="#618424"/>
</svg>
